<svg width="85" height="85" viewBox="0 0 85 85" fill="none" xmlns="http://www.w3.org/2000/svg">
<rect width="85" height="85" rx="12.75" fill="white"/>
<path d="M58.6485 34.2344C60.765 34.0766 62.6025 34.1402 64.5049 35.3331C68.347 37.7418 68.7077 44.3068 66.4531 47.8829C65.332 49.6621 63.5805 50.4863 61.5811 50.8946C57.182 51.5911 53.1288 49.379 52.4024 44.7471C51.6335 39.8442 53.1864 35.1559 58.6485 34.2344ZM63.209 46.1495C64.7067 42.8586 64.0859 36.8537 59.2754 37.294C55.9739 38.1885 55.7338 42.2124 56.4512 45.0108C57.0148 47.21 58.6849 48.2251 60.9151 47.9561C61.9111 47.6574 62.7643 47.1273 63.209 46.1495Z" fill="black"/>
<path d="M41.3564 34.5843L45.2422 34.5845L45.2414 50.5675C44.1315 50.5713 42.9437 50.5947 41.8402 50.5721C41.8801 49.6776 41.9482 48.6596 41.9237 47.7746C41.8128 46.94 42.1372 45.3158 41.747 44.8715C41.4001 46.6731 40.8346 49.2889 39.2137 50.1909C35.4201 52.3019 31.8193 50.4183 31.2722 46.1531C31.0174 44.1672 31.0496 42.7827 31.0509 40.926L31.0596 34.5844L34.9122 34.5883L34.9044 40.6537C34.9038 42.5133 34.6363 45.4749 35.8796 46.9268C36.7698 47.9663 39.0074 47.587 39.7716 46.5896C42.0773 43.5802 41.2465 38.1823 41.3564 34.5843Z" fill="black"/>
<path d="M20.5659 29C22.4852 29.0184 23.542 29.3398 25.0392 30.5398C24.8513 31.5949 24.741 33.0507 24.6284 34.1389C23.7561 33.3704 22.7117 32.8167 21.5296 32.7565C20.2557 32.6918 19.0685 33.4936 19.0621 34.8576C19.0556 35.4088 19.2752 35.9387 19.6697 36.3237C20.8146 37.4574 23.257 37.1471 24.853 37.1517L24.8478 40.211C23.6301 40.2001 22.4124 40.2044 21.1949 40.2242L21.1959 49.4403L21.1987 50.5648C19.9561 50.5955 18.6154 50.573 17.3653 50.5741L17.3738 40.2223L15 40.2085L15.0082 37.364C16.3253 37.4603 18.8377 37.6953 20.0579 37.6302C17.9781 36.9035 15.7329 36.7043 15.4727 33.8172C15.374 32.7088 15.7263 31.6075 16.4499 30.7622C17.5523 29.4752 18.9712 29.1333 20.5659 29Z" fill="black"/>
<path d="M47.1426 34.5869L51.0251 34.5879L51.0253 45.0606C51.0253 46.3942 51.0358 47.733 51.0161 49.0664C50.9768 51.7217 50.7382 54.2216 47.8345 55.1682C46.5217 55.437 45.8516 55.3482 44.5518 55.0896C44.4222 54.0668 44.3395 52.8305 44.2456 51.7885C45.9794 51.8476 47.0006 52.052 47.1018 49.9114C47.1829 48.1968 47.1423 46.4724 47.1415 44.7559L47.1426 34.5869Z" fill="black"/>
<path d="M25.7408 29.4236C27.0178 29.3979 28.3656 29.4175 29.6481 29.4159L29.5986 50.5684L25.7336 50.5741L25.7408 29.4236Z" fill="black"/>
<path d="M48.8531 29.1736C50.5456 29.1996 52.0987 30.0292 51.1291 32.1386C50.8741 32.6935 50.0211 32.895 49.4449 32.9947C48.6795 33.0128 47.9715 32.9714 47.3484 32.4795C46.9626 32.1752 46.7143 31.7296 46.6584 31.2413C46.6012 30.7859 46.7306 30.3266 47.0173 29.968C47.5181 29.3475 48.1158 29.2435 48.8531 29.1736Z" fill="black"/>
<path d="M72.0803 43.4674C72.6493 43.4374 72.9644 43.4707 73.3213 43.9445C73.4688 44.4752 73.4313 45.5706 73.4959 46.1873C73.6023 47.21 74.4786 50.5516 73.5107 51.0432C72.6458 50.9599 72.5376 48.5236 72.4024 47.7678C71.7304 49.5563 70.8856 51.2751 69.8802 52.8998C64.8987 60.8174 56.6061 63.6755 48.4491 58.4794C46.2753 57.0787 48.0463 55.9593 48.587 56.2973C56.7623 61.4096 64.869 60.0575 70.224 47.7847C69.696 48.3439 68.8373 49.6908 67.989 49.4571L67.8956 49.2872C68.0972 47.2392 70.6953 46.0227 71.4991 44.24C71.664 43.8749 71.7749 43.7184 72.0803 43.4674Z" fill="#C6C6C6"/>
</svg>
