<svg width="87" height="48" viewBox="0 0 87 48" fill="none" xmlns="http://www.w3.org/2000/svg">
<path d="M64.3764 7.71996C67.498 7.48716 70.2082 7.58075 73.0141 9.34008C78.6809 12.8924 79.2132 22.5754 75.8881 27.8498C74.2345 30.474 71.6514 31.6909 68.7025 32.2932C62.2144 33.3206 56.2351 30.0571 55.1635 23.2258C54.0294 15.9945 56.3206 9.07908 64.3764 7.71996ZM71.102 25.2932C73.3109 20.4396 72.3961 11.5824 65.3012 12.2317C60.4318 13.5509 60.077 19.4871 61.1352 23.6145C61.9665 26.858 64.4299 28.355 67.7191 27.9582C69.1884 27.5178 70.446 26.7356 71.102 25.2932Z" fill="black"/>
<path d="M38.8728 8.23618L44.6039 8.23644L44.6026 31.8096C42.9657 31.8153 41.2137 31.8497 39.5863 31.8164C39.6452 30.4971 39.7456 28.9957 39.7095 27.6904C39.5459 26.4594 40.0244 24.0639 39.4489 23.4087C38.9372 26.0658 38.1032 29.9238 35.7125 31.2541C30.1174 34.3676 24.8066 31.5896 23.9996 25.2989C23.6239 22.3698 23.6713 20.328 23.6732 17.5894L23.6861 8.23631L29.3683 8.24211L29.3568 17.1879C29.3559 19.9305 28.9613 24.2986 30.7951 26.44C32.1081 27.9731 35.4082 27.4137 36.5354 25.9426C39.9359 21.5041 38.7106 13.5429 38.8728 8.23618Z" fill="black"/>
<path d="M8.20913 0C11.0399 0.0271995 12.5985 0.501194 14.8066 2.27109C14.5295 3.82713 14.3669 5.97434 14.2009 7.57937C12.9143 6.44589 11.3738 5.62913 9.63038 5.54044C7.75158 5.44505 6.00063 6.62752 5.99109 8.63925C5.98156 9.45227 6.30545 10.2338 6.88725 10.8017C8.57594 12.4737 12.1781 12.0161 14.5321 12.0228L14.5244 16.535C12.7285 16.5188 10.9324 16.5253 9.13674 16.5544L9.13828 30.1472L9.14241 31.8057C7.30975 31.851 5.33235 31.8177 3.4886 31.8194L3.50111 16.5516L0 16.5312L0.0121147 12.3359C1.95471 12.478 5.66024 12.8246 7.4599 12.7286C4.39237 11.6567 1.08098 11.3629 0.697154 7.10486C0.55164 5.47006 1.07119 3.8457 2.13851 2.59903C3.76443 0.700872 5.85705 0.196584 8.20913 0Z" fill="black"/>
<path d="M47.4068 8.24002L53.133 8.24157L53.1333 23.6875C53.1333 25.6545 53.1488 27.6291 53.1196 29.5957C53.0618 33.5119 52.7098 37.1991 48.4272 38.5951C46.4909 38.9915 45.5026 38.8607 43.5855 38.4793C43.3945 36.9707 43.2725 35.1473 43.134 33.6104C45.6912 33.6976 47.1974 33.9991 47.3466 30.842C47.4662 28.3131 47.4063 25.7699 47.4051 23.2381L47.4068 8.24002Z" fill="black"/>
<path d="M15.8415 0.624702C17.7248 0.586804 19.7128 0.615806 21.6043 0.613357L21.5313 31.8109L15.8308 31.8194L15.8415 0.624702Z" fill="black"/>
<path d="M49.9295 0.256012C52.4257 0.294426 54.7164 1.51789 53.2864 4.62907C52.9103 5.4475 51.6522 5.74464 50.8024 5.89172C49.6734 5.9184 48.6292 5.85743 47.7102 5.13181C47.1413 4.68308 46.775 4.02578 46.6926 3.30571C46.6082 2.63397 46.7991 1.95656 47.2218 1.42765C47.9605 0.51254 48.8421 0.359138 49.9295 0.256012Z" fill="black"/>
<path d="M84.1871 21.3378C85.0263 21.2935 85.4909 21.3427 86.0174 22.0414C86.2349 22.8241 86.1796 24.4398 86.2748 25.3494C86.4319 26.8577 87.7242 31.7862 86.2967 32.5111C85.0211 32.3884 84.8615 28.7951 84.662 27.6804C83.6709 30.3183 82.4249 32.8533 80.9421 35.2495C73.595 46.927 61.3643 51.1424 49.3336 43.4788C46.1276 41.4129 48.7396 39.7619 49.537 40.2605C61.5947 47.8004 73.5512 45.8062 81.4492 27.7053C80.6705 28.5301 79.4039 30.5166 78.1528 30.172L78.0151 29.9213C78.3124 26.9008 82.1443 25.1065 83.3298 22.4772C83.5731 21.9388 83.7365 21.708 84.1871 21.3378Z" fill="#C6C6C6"/>
</svg>
