<svg width="249" height="136" viewBox="0 0 249 136" fill="none" xmlns="http://www.w3.org/2000/svg">
<path d="M183.646 22.0231C192.551 21.359 200.28 21.6254 208.285 26.6442C224.451 36.7778 225.97 64.4005 216.484 79.447C211.767 86.9328 204.398 90.4027 195.986 92.1208C177.477 95.0516 160.421 85.7427 157.365 66.2546C154.13 45.6257 160.665 25.8999 183.646 22.0231ZM202.832 72.155C209.134 58.3092 206.523 33.0414 186.283 34.8942C172.392 38.6575 171.38 55.5899 174.399 67.364C176.77 76.6168 183.797 80.8884 193.18 79.7565C197.372 78.5 200.96 76.2697 202.832 72.155Z" fill="white"/>
<path d="M110.891 23.4951L127.24 23.4958L127.237 90.7425C122.567 90.7587 117.569 90.8569 112.927 90.762C113.095 86.9983 113.381 82.7153 113.278 78.9917C112.812 75.4802 114.177 68.6466 112.535 66.7775C111.075 74.3571 108.696 85.363 101.876 89.1579C85.9152 98.0398 70.7651 90.1148 68.4631 72.1695C67.3913 63.8139 67.5266 57.989 67.5321 50.177L67.5689 23.4955L83.7782 23.512L83.7455 49.0315C83.7429 56.8553 82.6171 69.3159 87.8484 75.4247C91.5939 79.7981 101.008 78.2025 104.224 74.0059C113.924 61.3442 110.429 38.6335 110.891 23.4951Z" fill="white"/>
<path d="M23.418 0C31.4933 0.0775913 35.9396 1.42974 42.2386 6.4787C41.4481 10.9176 40.9841 17.0429 40.5105 21.6215C36.8404 18.388 32.4459 16.0581 27.4724 15.8051C22.1128 15.533 17.1179 18.9062 17.0907 24.645C17.0635 26.9643 17.9874 29.1938 19.6471 30.8137C24.4644 35.5835 34.7402 34.2781 41.4554 34.2972L41.4334 47.1689C36.3102 47.1229 31.1866 47.1413 26.0642 47.2244L26.0686 86.0002L26.0803 90.7315C20.8524 90.8605 15.2115 90.7657 9.95186 90.7704L9.98755 47.2163L0 47.1582L0.0345594 35.1904C5.57617 35.5957 16.1468 36.5845 21.2807 36.3105C12.53 33.2528 3.0837 32.4148 1.98876 20.2679C1.57365 15.6043 3.05575 10.9705 6.10047 7.41421C10.7387 1.99936 16.7083 0.56079 23.418 0Z" fill="white"/>
<path d="M135.236 23.5061L151.571 23.5105L151.572 67.5728C151.572 73.1841 151.616 78.817 151.533 84.4271C151.368 95.5987 150.364 106.117 138.147 110.099C132.624 111.23 129.804 110.857 124.335 109.769C123.791 105.465 123.442 100.264 123.047 95.8797C130.342 96.1283 134.639 96.9884 135.065 87.9823C135.406 80.7682 135.235 73.5132 135.232 66.2909L135.236 23.5061Z" fill="white"/>
<path d="M45.1907 1.78202C50.5632 1.67391 56.2342 1.75664 61.6302 1.74966L61.4217 90.7462L45.1602 90.7704L45.1907 1.78202Z" fill="white"/>
<path d="M142.433 0.730316C149.554 0.8399 156.088 4.33004 152.009 13.2052C150.936 15.54 147.347 16.3876 144.923 16.8072C141.702 16.8833 138.723 16.7093 136.102 14.6394C134.479 13.3593 133.434 11.4843 133.199 9.43011C132.958 7.51386 133.503 5.58144 134.709 4.07263C136.816 1.46211 139.331 1.0245 142.433 0.730316Z" fill="white"/>
<path d="M240.159 60.8699C242.553 60.7436 243.878 60.8838 245.38 62.877C246.001 65.1099 245.843 69.7188 246.114 72.3136C246.562 76.6164 250.249 90.6758 246.177 92.7439C242.538 92.3937 242.083 82.1433 241.514 78.9634C238.686 86.4883 235.132 93.7199 230.902 100.555C209.943 133.868 175.053 145.893 140.733 124.031C131.587 118.138 139.038 113.428 141.313 114.85C175.71 136.359 209.818 130.67 232.348 79.0343C230.127 81.3872 226.514 87.054 222.945 86.0709L222.552 85.3559C223.4 76.7393 234.331 71.6209 237.713 64.1203C238.407 62.5845 238.873 61.9259 240.159 60.8699Z" fill="#C6C6C6"/>
</svg>
